<svg xmlns="http://www.w3.org/2000/svg" viewBox="0 0 512 512" role="img" aria-label="PDF">
  <rect width="512" height="512" rx="96" fill="#f7f3eb"/>
  <path d="M152 82h152l82 82v266H152z" fill="#fffdf8" stroke="#24211d" stroke-width="22" stroke-linejoin="round"/>
  <path d="M304 82v86h82" fill="none" stroke="#24211d" stroke-width="22" stroke-linejoin="round"/>
  <rect x="112" y="270" width="288" height="96" rx="22" fill="#087f6f"/>
  <path d="M165 336v-44h26c17 0 28 9 28 23s-11 21-28 21zm18-14h8c7 0 11-3 11-8s-4-8-11-8h-8zm55 14v-44h23c16 0 28 8 28 22s-12 22-28 22zm18-15h5c7 0 11-3 11-8s-4-8-11-8h-5zm52 15v-44h43v15h-25v6h22v14h-22v9z" fill="#fff"/>
  <path d="M160 414h192" stroke="#c98a21" stroke-width="18" stroke-linecap="round"/>
</svg>
